<svg width="102" height="52" viewBox="0 0 102 52" fill="none" xmlns="http://www.w3.org/2000/svg">
<path d="M41.522 24L39.092 20.49H38.948H36.41V24H33.494V11.4H38.948C40.064 11.4 41.03 11.586 41.846 11.958C42.674 12.33 43.31 12.858 43.754 13.542C44.198 14.226 44.42 15.036 44.42 15.972C44.42 16.908 44.192 17.718 43.736 18.402C43.292 19.074 42.656 19.59 41.828 19.95L44.654 24H41.522ZM41.468 15.972C41.468 15.264 41.24 14.724 40.784 14.352C40.328 13.968 39.662 13.776 38.786 13.776H36.41V18.168H38.786C39.662 18.168 40.328 17.976 40.784 17.592C41.24 17.208 41.468 16.668 41.468 15.972ZM52.4003 11.184C53.5643 11.184 54.5783 11.412 55.4423 11.868C56.3063 12.324 56.9783 12.996 57.4583 13.884C57.9383 14.772 58.1783 15.846 58.1783 17.106V24H55.2623V20.976H49.5023V24H46.6223V17.106C46.6223 15.846 46.8623 14.772 47.3423 13.884C47.8223 12.996 48.4943 12.324 49.3583 11.868C50.2223 11.412 51.2363 11.184 52.4003 11.184ZM55.2623 18.636V16.836C55.2623 15.792 55.0043 15.006 54.4883 14.478C53.9723 13.938 53.2703 13.668 52.3823 13.668C51.4823 13.668 50.7743 13.938 50.2583 14.478C49.7543 15.006 49.5023 15.792 49.5023 16.836V18.636H55.2623ZM75.4385 11.184C76.9265 11.184 78.0845 11.622 78.9125 12.498C79.7405 13.362 80.1545 14.616 80.1545 16.26V24H77.2385V16.35C77.2385 15.462 77.0045 14.796 76.5365 14.352C76.0805 13.896 75.4745 13.668 74.7185 13.668C73.8905 13.668 73.2305 13.908 72.7385 14.388C72.2465 14.856 72.0005 15.57 72.0005 16.53V24H69.0845V16.35C69.0845 15.462 68.8685 14.796 68.4365 14.352C68.0045 13.896 67.4165 13.668 66.6725 13.668C65.8565 13.668 65.2025 13.908 64.7105 14.388C64.2185 14.856 63.9725 15.57 63.9725 16.53V24H61.0565V11.4H63.8825V12.948C64.2665 12.384 64.7765 11.952 65.4125 11.652C66.0485 11.34 66.7805 11.184 67.6085 11.184C68.4725 11.184 69.2285 11.346 69.8765 11.67C70.5245 11.982 71.0225 12.438 71.3705 13.038C71.8025 12.438 72.3665 11.982 73.0625 11.67C73.7705 11.346 74.5625 11.184 75.4385 11.184Z" fill="#F13D3D"/>
<path d="M33.494 28.4H39.218C40.586 28.4 41.792 28.664 42.836 29.192C43.892 29.708 44.708 30.44 45.284 31.388C45.872 32.336 46.166 33.44 46.166 34.7C46.166 35.96 45.872 37.064 45.284 38.012C44.708 38.96 43.892 39.698 42.836 40.226C41.792 40.742 40.586 41 39.218 41H33.494V28.4ZM39.074 38.606C40.334 38.606 41.336 38.258 42.08 37.562C42.836 36.854 43.214 35.9 43.214 34.7C43.214 33.5 42.836 32.552 42.08 31.856C41.336 31.148 40.334 30.794 39.074 30.794H36.41V38.606H39.074ZM54.4671 41.216C53.1591 41.216 51.9771 40.934 50.9211 40.37C49.8771 39.806 49.0551 39.032 48.4551 38.048C47.8671 37.052 47.5731 35.936 47.5731 34.7C47.5731 33.464 47.8671 32.354 48.4551 31.37C49.0551 30.374 49.8771 29.594 50.9211 29.03C51.9771 28.466 53.1591 28.184 54.4671 28.184C55.7751 28.184 56.9511 28.466 57.9951 29.03C59.0391 29.594 59.8611 30.374 60.4611 31.37C61.0611 32.354 61.3611 33.464 61.3611 34.7C61.3611 35.936 61.0611 37.052 60.4611 38.048C59.8611 39.032 59.0391 39.806 57.9951 40.37C56.9511 40.934 55.7751 41.216 54.4671 41.216ZM54.4671 38.732C55.2111 38.732 55.8831 38.564 56.4831 38.228C57.0831 37.88 57.5511 37.4 57.8871 36.788C58.2351 36.176 58.4091 35.48 58.4091 34.7C58.4091 33.92 58.2351 33.224 57.8871 32.612C57.5511 32 57.0831 31.526 56.4831 31.19C55.8831 30.842 55.2111 30.668 54.4671 30.668C53.7231 30.668 53.0511 30.842 52.4511 31.19C51.8511 31.526 51.3771 32 51.0291 32.612C50.6931 33.224 50.5251 33.92 50.5251 34.7C50.5251 35.48 50.6931 36.176 51.0291 36.788C51.3771 37.4 51.8511 37.88 52.4511 38.228C53.0511 38.564 53.7231 38.732 54.4671 38.732ZM69.6546 41.216C68.3466 41.216 67.1646 40.934 66.1086 40.37C65.0646 39.806 64.2426 39.032 63.6426 38.048C63.0546 37.052 62.7606 35.936 62.7606 34.7C62.7606 33.464 63.0546 32.354 63.6426 31.37C64.2426 30.374 65.0646 29.594 66.1086 29.03C67.1646 28.466 68.3466 28.184 69.6546 28.184C70.9626 28.184 72.1386 28.466 73.1826 29.03C74.2266 29.594 75.0486 30.374 75.6486 31.37C76.2486 32.354 76.5486 33.464 76.5486 34.7C76.5486 35.936 76.2486 37.052 75.6486 38.048C75.0486 39.032 74.2266 39.806 73.1826 40.37C72.1386 40.934 70.9626 41.216 69.6546 41.216ZM69.6546 38.732C70.3986 38.732 71.0706 38.564 71.6706 38.228C72.2706 37.88 72.7386 37.4 73.0746 36.788C73.4226 36.176 73.5966 35.48 73.5966 34.7C73.5966 33.92 73.4226 33.224 73.0746 32.612C72.7386 32 72.2706 31.526 71.6706 31.19C71.0706 30.842 70.3986 30.668 69.6546 30.668C68.9106 30.668 68.2386 30.842 67.6386 31.19C67.0386 31.526 66.5646 32 66.2166 32.612C65.8806 33.224 65.7126 33.92 65.7126 34.7C65.7126 35.48 65.8806 36.176 66.2166 36.788C66.5646 37.4 67.0386 37.88 67.6386 38.228C68.2386 38.564 68.9106 38.732 69.6546 38.732ZM86.7681 41L84.3381 37.49H84.1941H81.6561V41H78.7401V28.4H84.1941C85.3101 28.4 86.2761 28.586 87.0921 28.958C87.9201 29.33 88.5561 29.858 89.0001 30.542C89.4441 31.226 89.6661 32.036 89.6661 32.972C89.6661 33.908 89.4381 34.718 88.9821 35.402C88.5381 36.074 87.9021 36.59 87.0741 36.95L89.9001 41H86.7681ZM86.7141 32.972C86.7141 32.264 86.4861 31.724 86.0301 31.352C85.5741 30.968 84.9081 30.776 84.0321 30.776H81.6561V35.168H84.0321C84.9081 35.168 85.5741 34.976 86.0301 34.592C86.4861 34.208 86.7141 33.668 86.7141 32.972ZM96.1164 41.216C95.1204 41.216 94.1544 41.084 93.2184 40.82C92.2944 40.544 91.5504 40.19 90.9864 39.758L91.9764 37.562C92.5164 37.958 93.1584 38.276 93.9024 38.516C94.6464 38.756 95.3904 38.876 96.1344 38.876C96.9624 38.876 97.5744 38.756 97.9704 38.516C98.3664 38.264 98.5644 37.934 98.5644 37.526C98.5644 37.226 98.4444 36.98 98.2044 36.788C97.9764 36.584 97.6764 36.422 97.3044 36.302C96.9444 36.182 96.4524 36.05 95.8284 35.906C94.8684 35.678 94.0824 35.45 93.4704 35.222C92.8584 34.994 92.3304 34.628 91.8864 34.124C91.4544 33.62 91.2384 32.948 91.2384 32.108C91.2384 31.376 91.4364 30.716 91.8324 30.128C92.2284 29.528 92.8224 29.054 93.6144 28.706C94.4184 28.358 95.3964 28.184 96.5484 28.184C97.3524 28.184 98.1384 28.28 98.9064 28.472C99.6744 28.664 100.346 28.94 100.922 29.3L100.022 31.514C98.8584 30.854 97.6944 30.524 96.5304 30.524C95.7144 30.524 95.1084 30.656 94.7124 30.92C94.3284 31.184 94.1364 31.532 94.1364 31.964C94.1364 32.396 94.3584 32.72 94.8024 32.936C95.2584 33.14 95.9484 33.344 96.8724 33.548C97.8324 33.776 98.6184 34.004 99.2304 34.232C99.8424 34.46 100.364 34.82 100.796 35.312C101.24 35.804 101.462 36.47 101.462 37.31C101.462 38.03 101.258 38.69 100.85 39.29C100.454 39.878 99.8544 40.346 99.0504 40.694C98.2464 41.042 97.2684 41.216 96.1164 41.216Z" fill="#503232"/>
<rect width="27.809" height="51.3" fill="#503232"/>
<rect x="3.33707" y="37.8" width="21.1348" height="8.1" fill="#C4C4C4"/>
<rect x="3.33707" y="27" width="21.1348" height="8.1" fill="#E5E5E5"/>
<rect x="3.33707" y="37.8" width="21.1348" height="8.1" fill="#C4C4C4"/>
<rect x="3.33707" y="16.2" width="21.1348" height="8.1" fill="#E5E5E5"/>
<rect x="3.33707" y="37.8" width="21.1348" height="8.1" fill="#E5E5E5"/>
<rect x="3.33707" y="5.39999" width="21.1348" height="8.1" fill="#E5E5E5"/>
<rect x="20.0225" y="24.3" width="5.5618" height="2.7" fill="#F13D3D"/>
</svg>
